<svg width="40" height="40" viewBox="0 0 40 40" fill="none" xmlns="http://www.w3.org/2000/svg">
<path d="M29.85 8.33323H9.84998L12.0166 6.18323C12.3305 5.8694 12.5068 5.44374 12.5068 4.9999C12.5068 4.55607 12.3305 4.13041 12.0166 3.81657C11.7028 3.50273 11.2771 3.32642 10.8333 3.32642C10.3895 3.32642 9.96382 3.50273 9.64998 3.81657L4.64998 8.81657C4.49377 8.97151 4.36978 9.15584 4.28516 9.35894C4.20055 9.56204 4.15698 9.77988 4.15698 9.9999C4.15698 10.2199 4.20055 10.4378 4.28516 10.6409C4.36978 10.844 4.49377 11.0283 4.64998 11.1832L9.64998 16.1832C9.80492 16.3394 9.98925 16.4634 10.1924 16.5481C10.3955 16.6327 10.6133 16.6762 10.8333 16.6762C11.0533 16.6762 11.2712 16.6327 11.4743 16.5481C11.6774 16.4634 11.8617 16.3394 12.0166 16.1832C12.1729 16.0283 12.2969 15.844 12.3815 15.6409C12.4661 15.4378 12.5096 15.2199 12.5096 14.9999C12.5096 14.7799 12.4661 14.562 12.3815 14.3589C12.2969 14.1558 12.1729 13.9715 12.0166 13.8166L9.84998 11.6666H29.85C30.1914 11.6599 30.5308 11.7206 30.8488 11.8452C31.1668 11.9698 31.4571 12.1558 31.7032 12.3926C31.9493 12.6294 32.1464 12.9124 32.2831 13.2253C32.4198 13.5383 32.4935 13.8751 32.5 14.2166V18.3332C32.5 18.7753 32.6756 19.1992 32.9881 19.5117C33.3007 19.8243 33.7246 19.9999 34.1666 19.9999C34.6087 19.9999 35.0326 19.8243 35.3452 19.5117C35.6577 19.1992 35.8333 18.7753 35.8333 18.3332V14.2166C35.8268 13.4374 35.6668 12.6671 35.3626 11.9498C35.0583 11.2324 34.6158 10.582 34.0602 10.0356C33.5046 9.48933 32.8468 9.05779 32.1244 8.76569C31.402 8.47359 30.6292 8.32664 29.85 8.33323ZM30.35 23.8166C30.0361 23.5027 29.6105 23.3264 29.1666 23.3264C28.7228 23.3264 28.2972 23.5027 27.9833 23.8166C27.6695 24.1304 27.4932 24.5561 27.4932 24.9999C27.4932 25.4437 27.6695 25.8694 27.9833 26.1832L30.15 28.3332H10.15C9.80853 28.3399 9.46911 28.2792 9.15112 28.1546C8.83314 28.03 8.54281 27.844 8.29672 27.6072C8.05063 27.3704 7.85361 27.0874 7.7169 26.7745C7.58019 26.4615 7.50648 26.1247 7.49998 25.7832V21.6666C7.49998 21.2245 7.32438 20.8006 7.01182 20.4881C6.69926 20.1755 6.27534 19.9999 5.83331 19.9999C5.39129 19.9999 4.96736 20.1755 4.6548 20.4881C4.34224 20.8006 4.16665 21.2245 4.16665 21.6666V25.7832C4.17318 26.5624 4.33314 27.3327 4.63737 28.05C4.94161 28.7674 5.38416 29.4178 5.93977 29.9641C6.49538 30.5105 7.15316 30.942 7.87555 31.2341C8.59794 31.5262 9.3708 31.6732 10.15 31.6666H30.15L27.9833 33.8166C27.8271 33.9715 27.7031 34.1558 27.6185 34.3589C27.5339 34.562 27.4903 34.7799 27.4903 34.9999C27.4903 35.2199 27.5339 35.4378 27.6185 35.6409C27.7031 35.844 27.8271 36.0283 27.9833 36.1832C28.1383 36.3394 28.3226 36.4634 28.5257 36.548C28.7288 36.6327 28.9466 36.6762 29.1666 36.6762C29.3867 36.6762 29.6045 36.6327 29.8076 36.548C30.0107 36.4634 30.195 36.3394 30.35 36.1832L35.35 31.1832C35.5062 31.0283 35.6302 30.844 35.7148 30.6409C35.7994 30.4378 35.843 30.2199 35.843 29.9999C35.843 29.7799 35.7994 29.562 35.7148 29.3589C35.6302 29.1558 35.5062 28.9715 35.35 28.8166L30.35 23.8166Z" fill="white"/>
</svg>
