<svg width="40" height="40" viewBox="0 0 40 40" fill="none" xmlns="http://www.w3.org/2000/svg">
<path d="M28.3335 28.3333H25.7352L9.5685 10.545C9.41223 10.3733 9.22179 10.2361 9.00941 10.1422C8.79702 10.0484 8.56736 9.99992 8.33516 10H3.3335V13.3333H7.5985L14.4152 20.8333L7.5985 28.335H3.3335V31.6683H8.33516C8.56736 31.6684 8.79702 31.62 9.00941 31.5261C9.22179 31.4323 9.41223 31.2951 9.5685 31.1233L16.6668 23.3117L23.7652 31.1217C23.9214 31.2934 24.1119 31.4306 24.3243 31.5245C24.5366 31.6183 24.7663 31.6668 24.9985 31.6667H28.3335V36.6667L36.6668 30L28.3335 23.3333V28.3333Z" fill="white"/>
<path d="M25.7349 13.3333H28.3333V18.3333L36.6666 11.77L28.3333 5V10H24.9983C24.7661 9.99992 24.5364 10.0484 24.324 10.1422C24.1116 10.2361 23.9212 10.3733 23.7649 10.545L18.1516 16.7233L20.6183 18.9667L25.7349 13.3333Z" fill="white"/>
</svg>
